<?xml version="1.0" encoding="UTF-8" standalone="no"?>
<!-- Created with Inkscape (http://www.inkscape.org/) -->

<svg
   xmlns:dc="http://purl.org/dc/elements/1.1/"
   xmlns:cc="http://creativecommons.org/ns#"
   xmlns:rdf="http://www.w3.org/1999/02/22-rdf-syntax-ns#"
   xmlns:svg="http://www.w3.org/2000/svg"
   xmlns="http://www.w3.org/2000/svg"
   xmlns:sodipodi="http://sodipodi.sourceforge.net/DTD/sodipodi-0.dtd"
   xmlns:inkscape="http://www.inkscape.org/namespaces/inkscape"
   width="150"
   height="150"
   viewBox="0 0 150 150"
   id="svg2"
   version="1.1"
   inkscape:version="0.91 r13725"
   sodipodi:docname="logo1.svg">
  <defs
     id="defs4">
    <inkscape:perspective
       sodipodi:type="inkscape:persp3d"
       inkscape:vp_x="0 : 526.18109 : 1"
       inkscape:vp_y="0 : 999.99998 : 0"
       inkscape:vp_z="744.09448 : 526.18109 : 1"
       inkscape:persp3d-origin="372.04723 : 350.78739 : 1"
       id="perspective4713" />
  </defs>
  <sodipodi:namedview
     id="base"
     pagecolor="#ffffff"
     bordercolor="#666666"
     borderopacity="1.0"
     inkscape:pageopacity="0.0"
     inkscape:pageshadow="2"
     inkscape:zoom="1"
     inkscape:cx="119.4255"
     inkscape:cy="208.15164"
     inkscape:document-units="px"
     inkscape:current-layer="layer1"
     showgrid="false"
     showguides="true"
     inkscape:guide-bbox="true"
     inkscape:window-width="1366"
     inkscape:window-height="708"
     inkscape:window-x="0"
     inkscape:window-y="27"
     inkscape:window-maximized="1"
     units="px" />
  <metadata
     id="metadata7">
    <rdf:RDF>
      <cc:Work
         rdf:about="">
        <dc:format>image/svg+xml</dc:format>
        <dc:type
           rdf:resource="http://purl.org/dc/dcmitype/StillImage" />
        <dc:title></dc:title>
      </cc:Work>
    </rdf:RDF>
  </metadata>
  <g
     inkscape:label="Capa 1"
     inkscape:groupmode="layer"
     id="layer1"
     transform="translate(0,-902.36249)">
    <g
       id="g4444">
      <g
         transform="translate(-0.25253814,-10.101525)"
         id="g4428" />
      <g
         id="g4432"
         transform="translate(15.747462,-10.101525)" />
      <g
         transform="translate(31.747462,-10.101525)"
         id="g4438" />
    </g>
    <g
       id="g4455"
       transform="matrix(1,0,0,0.85324169,0,32.306831)">
      <g
         id="g4457"
         transform="translate(-0.25253814,-10.101525)" />
      <g
         transform="translate(15.747462,-10.101525)"
         id="g4463" />
      <g
         id="g4469"
         transform="translate(31.747462,-10.101525)" />
    </g>
    <g
       transform="matrix(1,0,0,0.85324169,0,15.190714)"
       id="g4495">
      <g
         transform="translate(-0.25253814,-10.101525)"
         id="g4497" />
      <g
         id="g4503"
         transform="translate(15.747462,-10.101525)" />
      <g
         transform="translate(31.747462,-10.101525)"
         id="g4509" />
    </g>
    <g
       id="g4535"
       transform="matrix(1,0,0,0.90364883,8,6.7327205)">
      <g
         id="g4537"
         transform="translate(-0.25253814,-10.101525)" />
      <g
         transform="translate(15.747462,-10.101525)"
         id="g4543" />
      <g
         id="g4549"
         transform="translate(31.779029,-10.066592)" />
    </g>
    <g
       transform="matrix(1,0,0,1.0933917,8,-73.51863)"
       id="g4555">
      <g
         transform="translate(-0.25253814,-10.101525)"
         id="g4557" />
      <g
         id="g4563"
         transform="translate(15.747462,-10.101525)" />
      <g
         transform="translate(31.747462,-10.101525)"
         id="g4569" />
    </g>
    <g
       transform="matrix(1,0,0,0.86658335,-8,35.915301)"
       id="g4595">
      <g
         transform="translate(-0.25253814,-10.101525)"
         id="g4597" />
      <g
         id="g4603"
         transform="translate(15.747462,-10.101525)" />
      <g
         transform="translate(31.747462,-10.101525)"
         id="g4609" />
    </g>
    <g
       id="g4615"
       transform="matrix(1,0,0,0.87992502,8,31.523771)">
      <g
         id="g4617"
         transform="translate(-0.25253814,-10.101525)" />
      <g
         transform="translate(15.747462,-10.101525)"
         id="g4623" />
      <g
         id="g4629"
         transform="translate(31.747462,-10.101525)" />
    </g>
    <g
       id="g3370"
       transform="matrix(1.4020039,0,0,1.4020039,4.4543726,-434.72043)">
      <path
         sodipodi:nodetypes="cccccccccccc"
         inkscape:connector-curvature="0"
         id="path3336-2-9"
         d="m 10.57679,1013.89 c -2.9247999,-0.1632 -7.1847499,1.4936 -11.39891987,3.7444 8.35721997,20.767 28.49125987,34.3756 50.87681987,34.3877 23.63969,-0.02 44.60939,-15.1778 52.0431,-37.6183 -6.66244,2.7389 -16.50671,8.9288 -23.90324,9.5526 -7.47536,0.6829 -7.39731,-6.6179 -5.1346,-9.2685 -6.13016,0.1085 -18.20008,8.3544 -26.38234,8.4348 -7.93227,1.0803 -7.79197,-6.0345 -5.56494,-8.2495 -6.3366,0.5575 -17.17826,7.3474 -25.05283,8.3765 -7.9278199,1.0823 -6.05767,-6.9164 -4.31678,-9.1756 -0.35905,-0.101 -0.74888,-0.1609 -1.16626,-0.1841 z"
         style="opacity:1;fill:#000000;fill-opacity:1;stroke:none;stroke-width:3.2349999;stroke-miterlimit:4;stroke-dasharray:none;stroke-opacity:1" />
      <path
         inkscape:connector-curvature="0"
         id="rect3444-3"
         d="m 86.98817,975.98032 -13.28906,0.67383 -0.0625,5.72852 13.29296,-0.67383 1.95508,2.1289 0.0586,-5.72851 -1.95508,-2.12891 z m -14.72266,0.74609 -14.89844,0.75391 -0.0625,5.72852 14.90039,-0.75391 0.06055,-5.72852 z m -16.33008,0.82618 -14.61132,0.74023 -0.0625,5.72852 14.61132,-0.74024 0.0625,-5.72851 z m -16.04297,0.8125 -14.61132,0.74023 -0.0625,5.72852 14.61132,-0.74024 0.0625,-5.72851 z m -16.04101,0.8125 -11.89844,0.60351 -0.05664,5.72852 11.89063,-0.60352 0.06445,-5.72851 z m 63.05078,4.12304 -5.25586,0.26563 -0.08203,7.71875 5.24805,-0.26563 1.98047,2.12696 0.07617,-7.71875 -1.9668,-2.12696 z m -6.6875,0.33789 -14.89844,0.75391 -0.08398,7.7207 14.90039,-0.75586 0.08203,-7.71875 z m -16.33203,0.82813 -14.61133,0.73828 -0.08203,7.7207 14.61133,-0.74023 0.08203,-7.71875 z m -16.04297,0.8125 -14.60937,0.73828 -0.02344,1.97852 -0.06055,5.74218 14.61133,-0.74023 0.08203,-7.71875 z m -16.04101,0.81055 -14.61133,0.74023 -0.08399,7.71875 14.61133,-0.73828 0.08399,-7.7207 z m -16.04297,0.8125 -3.875,0.19726 -0.07813,7.71875 3.8711,-0.19531 0.08203,-7.7207 z m 71.01562,5.70898 -13.23828,0.66992 -0.08398,7.7168 13.25781,-0.6699 1.99219,2.1269 0.07617,-7.71677 -2.00391,-2.12695 z m -14.67187,0.74219 -14.89844,0.75586 -0.08399,7.71677 14.90039,-0.7558 0.08204,-7.71683 z m -16.33008,0.82812 -14.61133,0.74024 -0.08398,7.71677 14.61132,-0.7402 0.08399,-7.71681 z m -16.04297,0.8125 -14.61133,0.74024 -0.08203,7.71677 14.60937,-0.7402 0.08399,-7.71681 z m -16.04297,0.8125 -11.89648,0.60157 -0.07813,7.71684 11.89258,-0.6016 0.08203,-7.71681 z m 63.00781,6.11331 -5.23047,0.2656 -0.08398,7.7168 5.22461,-0.2656 2.00391,2.1269 0.07812,-7.7168 -1.99219,-2.1269 z m -6.66406,0.3379 -14.89844,0.7539 -0.08398,7.7168 14.90039,-0.7539 0.08203,-7.7168 z m -16.33008,0.8261 -14.61133,0.7403 -0.08398,7.7168 14.61133,-0.7403 0.08398,-7.7168 z m -16.04297,0.8125 -14.61132,0.7403 -0.08204,7.7168 14.60938,-0.7403 0.08398,-7.7168 z m -16.04296,0.8125 -14.64258,0.7422 -0.08203,7.7168 14.64257,-0.7422 0.08204,-7.7168 z m -16.07422,0.8145 -3.8418,0.1934 -0.07813,7.7168 3.83789,-0.1934 0.08204,-7.7168 z m 71.07226,5.7051 -13.26367,0.6718 -0.01758,1.7442 c 0.53577,0.01 1.03633,0.064 1.48242,0.1894 -0.63672,0.8264 -1.29879,2.2972 -1.52539,3.7989 l -0.01953,1.8105 c 0.0086,0.058 0.02247,0.1144 0.03321,0.1719 l 13.24609,-0.6582 0.95312,1.0254 c 0.34314,-0.1413 0.68568,-0.2988 1.0293,-0.4453 l 0.0625,-6.1817 -1.98047,-2.1269 z m -14.69726,0.7441 -14.89844,0.7539 -0.06641,6.2774 c 5.32747,-2.1787 10.93249,-4.754 14.94727,-5.2618 l 0.01758,-1.7695 z m -16.33008,0.8262 -14.61133,0.7402 0,0.065 c 0.86374,-0.065 1.6453,-0.024 2.31445,0.164 -1.22475,1.5895 -2.54249,5.552 -0.46289,7.3907 l 9.84375,-0.5 c 0.91853,-0.3207 1.87924,-0.6955 2.8418,-1.0762 l 0.07422,-6.7832 z m -16.04297,0.8125 -14.61133,0.7402 -0.05078,4.8086 c 5.12676,-2.0773 10.57606,-4.604 14.66016,-5.3594 l 0.002,-0.1894 z m -16.04102,0.8125 -11.89843,0.6035 -0.0625,6.2832 c 0.89833,0.6379 2.29865,0.9497 4.43359,0.6582 2.1541,-0.2941 4.74269,-1.1681 7.46875,-2.2305 l 0.05859,-5.3144 z m 62.54493,6.1387 -4.76954,0.2402 -0.01367,1.2812 c 1.54627,-0.3625 3.15447,-0.8946 4.78321,-1.5214 z m -6.20118,0.3125 -5.87304,0.2968 c 0.76319,0.9712 2.16561,1.5693 4.53906,1.3692 0.43219,-0.037 0.87219,-0.097 1.31836,-0.1699 l 0.01562,-1.4961 z"
         style="opacity:1;fill:#000000;fill-opacity:1;stroke:none;stroke-width:3.2349999;stroke-miterlimit:4;stroke-dasharray:none;stroke-opacity:1" />
    </g>
  </g>
</svg>
